<mxfile host="app.diagrams.net" modified="2021-01-14T07:05:05.954Z" agent="5.0 (Windows NT 10.0; Win64; x64) AppleWebKit/537.36 (KHTML, like Gecko) Chrome/87.0.4280.141 Safari/537.36" etag="tr5B9-_Vnz8W-MVhIltE" version="14.2.2" type="github">
  <diagram id="HMHWYEoRDYEV77XnEjbr" name="Page-1">
    <mxGraphModel dx="1278" dy="491" grid="1" gridSize="10" guides="1" tooltips="1" connect="1" arrows="1" fold="1" page="1" pageScale="1" pageWidth="850" pageHeight="1100" math="0" shadow="0">
      <root>
        <mxCell id="0" />
        <mxCell id="1" parent="0" />
        <mxCell id="Bd0iO2E9fn0XYFr_jrLQ-27" value="" style="rounded=0;whiteSpace=wrap;html=1;" parent="1" vertex="1">
          <mxGeometry x="30" y="300" width="300" height="120" as="geometry" />
        </mxCell>
        <mxCell id="Bd0iO2E9fn0XYFr_jrLQ-26" value="" style="rounded=0;whiteSpace=wrap;html=1;" parent="1" vertex="1">
          <mxGeometry x="30" y="310" width="310" height="120" as="geometry" />
        </mxCell>
        <mxCell id="Bd0iO2E9fn0XYFr_jrLQ-1" value="" style="rounded=0;whiteSpace=wrap;html=1;" parent="1" vertex="1">
          <mxGeometry x="20" y="190" width="810" height="700" as="geometry" />
        </mxCell>
        <mxCell id="Bd0iO2E9fn0XYFr_jrLQ-40" value="" style="rounded=0;whiteSpace=wrap;html=1;" parent="1" vertex="1">
          <mxGeometry x="40" y="240" width="780" height="90" as="geometry" />
        </mxCell>
        <mxCell id="Bd0iO2E9fn0XYFr_jrLQ-41" value="java Heap" style="rounded=0;whiteSpace=wrap;html=1;" parent="1" vertex="1">
          <mxGeometry x="60" y="250" width="150" height="60" as="geometry" />
        </mxCell>
        <mxCell id="Bd0iO2E9fn0XYFr_jrLQ-42" value="Non Heap" style="rounded=0;whiteSpace=wrap;html=1;" parent="1" vertex="1">
          <mxGeometry x="250" y="250" width="80" height="60" as="geometry" />
        </mxCell>
        <mxCell id="Bd0iO2E9fn0XYFr_jrLQ-43" value="java method stack" style="rounded=0;whiteSpace=wrap;html=1;" parent="1" vertex="1">
          <mxGeometry x="360" y="255" width="120" height="60" as="geometry" />
        </mxCell>
        <mxCell id="Bd0iO2E9fn0XYFr_jrLQ-44" value="native method stack" style="rounded=0;whiteSpace=wrap;html=1;" parent="1" vertex="1">
          <mxGeometry x="500" y="250" width="70" height="60" as="geometry" />
        </mxCell>
        <mxCell id="Bd0iO2E9fn0XYFr_jrLQ-45" value="pc registers" style="rounded=0;whiteSpace=wrap;html=1;" parent="1" vertex="1">
          <mxGeometry x="750" y="250" width="60" height="60" as="geometry" />
        </mxCell>
        <mxCell id="Bd0iO2E9fn0XYFr_jrLQ-46" value="" style="rounded=0;whiteSpace=wrap;html=1;" parent="1" vertex="1">
          <mxGeometry x="40" y="360" width="400" height="70" as="geometry" />
        </mxCell>
        <mxCell id="Bd0iO2E9fn0XYFr_jrLQ-49" value="yong&amp;nbsp;" style="rounded=0;whiteSpace=wrap;html=1;" parent="1" vertex="1">
          <mxGeometry x="40" y="365" width="150" height="65" as="geometry" />
        </mxCell>
        <mxCell id="Bd0iO2E9fn0XYFr_jrLQ-50" value="Old" style="rounded=0;whiteSpace=wrap;html=1;" parent="1" vertex="1">
          <mxGeometry x="190" y="365" width="180" height="65" as="geometry" />
        </mxCell>
        <mxCell id="Bd0iO2E9fn0XYFr_jrLQ-56" value="" style="endArrow=none;dashed=1;html=1;dashPattern=1 3;strokeWidth=2;" parent="1" edge="1">
          <mxGeometry width="50" height="50" relative="1" as="geometry">
            <mxPoint x="40" y="510" as="sourcePoint" />
            <mxPoint x="440" y="510" as="targetPoint" />
          </mxGeometry>
        </mxCell>
        <mxCell id="Bd0iO2E9fn0XYFr_jrLQ-61" value="&lt;font style=&quot;font-size: 18px&quot;&gt;-Xmx&lt;/font&gt;" style="edgeLabel;html=1;align=center;verticalAlign=middle;resizable=0;points=[];" parent="Bd0iO2E9fn0XYFr_jrLQ-56" vertex="1" connectable="0">
          <mxGeometry x="-0.1427" y="-1" relative="1" as="geometry">
            <mxPoint x="38.67" y="-1" as="offset" />
          </mxGeometry>
        </mxCell>
        <mxCell id="Bd0iO2E9fn0XYFr_jrLQ-57" value="" style="endArrow=none;dashed=1;html=1;dashPattern=1 3;strokeWidth=2;" parent="1" edge="1">
          <mxGeometry width="50" height="50" relative="1" as="geometry">
            <mxPoint x="40" y="480" as="sourcePoint" />
            <mxPoint x="370" y="480" as="targetPoint" />
          </mxGeometry>
        </mxCell>
        <mxCell id="Bd0iO2E9fn0XYFr_jrLQ-59" value="&lt;font style=&quot;font-size: 18px&quot;&gt;-Xms&lt;/font&gt;" style="edgeLabel;html=1;align=center;verticalAlign=middle;resizable=0;points=[];" parent="Bd0iO2E9fn0XYFr_jrLQ-57" vertex="1" connectable="0">
          <mxGeometry x="-0.103" y="-3" relative="1" as="geometry">
            <mxPoint y="-3" as="offset" />
          </mxGeometry>
        </mxCell>
        <mxCell id="Bd0iO2E9fn0XYFr_jrLQ-63" value="" style="endArrow=none;dashed=1;html=1;dashPattern=1 3;strokeWidth=2;" parent="1" edge="1">
          <mxGeometry width="50" height="50" relative="1" as="geometry">
            <mxPoint x="40" y="450" as="sourcePoint" />
            <mxPoint x="190" y="450" as="targetPoint" />
          </mxGeometry>
        </mxCell>
        <mxCell id="Bd0iO2E9fn0XYFr_jrLQ-64" value="&lt;font style=&quot;font-size: 18px&quot;&gt;-Xmn&lt;/font&gt;" style="edgeLabel;html=1;align=center;verticalAlign=middle;resizable=0;points=[];" parent="Bd0iO2E9fn0XYFr_jrLQ-63" vertex="1" connectable="0">
          <mxGeometry x="-0.103" y="-3" relative="1" as="geometry">
            <mxPoint x="1" y="-3" as="offset" />
          </mxGeometry>
        </mxCell>
        <mxCell id="Bd0iO2E9fn0XYFr_jrLQ-65" value="" style="endArrow=classic;html=1;entryX=0;entryY=1;entryDx=0;entryDy=0;" parent="1" target="Bd0iO2E9fn0XYFr_jrLQ-46" edge="1">
          <mxGeometry width="50" height="50" relative="1" as="geometry">
            <mxPoint x="40" y="530" as="sourcePoint" />
            <mxPoint x="100" y="525" as="targetPoint" />
          </mxGeometry>
        </mxCell>
        <mxCell id="Bd0iO2E9fn0XYFr_jrLQ-66" value="" style="endArrow=classic;html=1;" parent="1" edge="1">
          <mxGeometry width="50" height="50" relative="1" as="geometry">
            <mxPoint x="440" y="520" as="sourcePoint" />
            <mxPoint x="440" y="430" as="targetPoint" />
          </mxGeometry>
        </mxCell>
        <mxCell id="Bd0iO2E9fn0XYFr_jrLQ-67" value="" style="endArrow=classic;html=1;" parent="1" edge="1">
          <mxGeometry width="50" height="50" relative="1" as="geometry">
            <mxPoint x="370" y="490" as="sourcePoint" />
            <mxPoint x="370" y="430" as="targetPoint" />
          </mxGeometry>
        </mxCell>
        <mxCell id="Bd0iO2E9fn0XYFr_jrLQ-68" value="" style="endArrow=classic;html=1;entryX=0;entryY=1;entryDx=0;entryDy=0;" parent="1" target="Bd0iO2E9fn0XYFr_jrLQ-50" edge="1">
          <mxGeometry width="50" height="50" relative="1" as="geometry">
            <mxPoint x="190" y="460" as="sourcePoint" />
            <mxPoint x="190" y="420" as="targetPoint" />
          </mxGeometry>
        </mxCell>
        <mxCell id="Bd0iO2E9fn0XYFr_jrLQ-69" value="" style="rounded=0;whiteSpace=wrap;html=1;" parent="1" vertex="1">
          <mxGeometry x="490" y="500" width="320" height="60" as="geometry" />
        </mxCell>
        <mxCell id="Bd0iO2E9fn0XYFr_jrLQ-73" value="" style="endArrow=classic;startArrow=classic;html=1;entryX=0.5;entryY=1;entryDx=0;entryDy=0;exitX=0.5;exitY=0;exitDx=0;exitDy=0;" parent="1" source="Bd0iO2E9fn0XYFr_jrLQ-75" target="Bd0iO2E9fn0XYFr_jrLQ-42" edge="1">
          <mxGeometry width="50" height="50" relative="1" as="geometry">
            <mxPoint x="500" y="570" as="sourcePoint" />
            <mxPoint x="450" y="320" as="targetPoint" />
            <Array as="points">
              <mxPoint x="600" y="470" />
              <mxPoint x="480" y="470" />
              <mxPoint x="480" y="350" />
              <mxPoint x="410" y="350" />
              <mxPoint x="310" y="350" />
            </Array>
          </mxGeometry>
        </mxCell>
        <mxCell id="Bd0iO2E9fn0XYFr_jrLQ-74" value="" style="endArrow=classic;startArrow=classic;html=1;entryX=0.5;entryY=1;entryDx=0;entryDy=0;exitX=0.362;exitY=-0.08;exitDx=0;exitDy=0;exitPerimeter=0;" parent="1" source="Bd0iO2E9fn0XYFr_jrLQ-50" target="Bd0iO2E9fn0XYFr_jrLQ-41" edge="1">
          <mxGeometry width="50" height="50" relative="1" as="geometry">
            <mxPoint x="516.5" y="623" as="sourcePoint" />
            <mxPoint x="270" y="320" as="targetPoint" />
            <Array as="points">
              <mxPoint x="255" y="340" />
              <mxPoint x="190" y="340" />
              <mxPoint x="135" y="340" />
            </Array>
          </mxGeometry>
        </mxCell>
        <mxCell id="Bd0iO2E9fn0XYFr_jrLQ-75" value="Metadata&amp;nbsp;area" style="rounded=0;whiteSpace=wrap;html=1;" parent="1" vertex="1">
          <mxGeometry x="520" y="500" width="160" height="60" as="geometry" />
        </mxCell>
        <mxCell id="Bd0iO2E9fn0XYFr_jrLQ-77" value="" style="endArrow=classic;html=1;entryX=0;entryY=1;entryDx=0;entryDy=0;" parent="1" edge="1">
          <mxGeometry width="50" height="50" relative="1" as="geometry">
            <mxPoint x="520" y="620" as="sourcePoint" />
            <mxPoint x="520" y="560" as="targetPoint" />
          </mxGeometry>
        </mxCell>
        <mxCell id="Bd0iO2E9fn0XYFr_jrLQ-78" value="" style="endArrow=classic;html=1;entryX=0.608;entryY=1.023;entryDx=0;entryDy=0;entryPerimeter=0;exitX=0.82;exitY=0.629;exitDx=0;exitDy=0;exitPerimeter=0;" parent="1" source="Bd0iO2E9fn0XYFr_jrLQ-1" target="Bd0iO2E9fn0XYFr_jrLQ-69" edge="1">
          <mxGeometry width="50" height="50" relative="1" as="geometry">
            <mxPoint x="709" y="620" as="sourcePoint" />
            <mxPoint x="709" y="560" as="targetPoint" />
            <Array as="points" />
          </mxGeometry>
        </mxCell>
        <mxCell id="Bd0iO2E9fn0XYFr_jrLQ-79" value="" style="endArrow=none;dashed=1;html=1;dashPattern=1 3;strokeWidth=2;" parent="1" edge="1">
          <mxGeometry width="50" height="50" relative="1" as="geometry">
            <mxPoint x="520" y="590" as="sourcePoint" />
            <mxPoint x="680" y="590" as="targetPoint" />
          </mxGeometry>
        </mxCell>
        <mxCell id="Bd0iO2E9fn0XYFr_jrLQ-80" value="&lt;font&gt;&lt;font style=&quot;font-size: 12px&quot;&gt;-&lt;span style=&quot;background-color: rgba(0 , 0 , 0 , 0) ; font-family: &amp;#34;microsoft yahei&amp;#34; , &amp;#34;stxihei&amp;#34; ; text-align: left&quot;&gt;XX:MetaspaceSize&lt;/span&gt;&lt;/font&gt;&lt;br&gt;&lt;/font&gt;" style="edgeLabel;html=1;align=center;verticalAlign=middle;resizable=0;points=[];" parent="Bd0iO2E9fn0XYFr_jrLQ-79" vertex="1" connectable="0">
          <mxGeometry x="-0.1427" y="-1" relative="1" as="geometry">
            <mxPoint x="11.330000000000002" y="-1" as="offset" />
          </mxGeometry>
        </mxCell>
        <mxCell id="Bd0iO2E9fn0XYFr_jrLQ-81" value="" style="rounded=0;whiteSpace=wrap;html=1;" parent="1" vertex="1">
          <mxGeometry x="140" y="730" width="610" height="60" as="geometry" />
        </mxCell>
        <mxCell id="Bd0iO2E9fn0XYFr_jrLQ-82" value="" style="endArrow=classic;startArrow=classic;html=1;exitX=0.173;exitY=0.01;exitDx=0;exitDy=0;exitPerimeter=0;" parent="1" source="Bd0iO2E9fn0XYFr_jrLQ-90" edge="1">
          <mxGeometry width="50" height="50" relative="1" as="geometry">
            <mxPoint x="510" y="580" as="sourcePoint" />
            <mxPoint x="460" y="310" as="targetPoint" />
            <Array as="points">
              <mxPoint x="460" y="630" />
              <mxPoint x="460" y="310" />
            </Array>
          </mxGeometry>
        </mxCell>
        <mxCell id="Bd0iO2E9fn0XYFr_jrLQ-83" value="" style="rounded=0;whiteSpace=wrap;html=1;" parent="1" vertex="1">
          <mxGeometry x="140" y="730" width="250" height="60" as="geometry" />
        </mxCell>
        <mxCell id="Bd0iO2E9fn0XYFr_jrLQ-86" value="reserved" style="rounded=0;whiteSpace=wrap;html=1;" parent="1" vertex="1">
          <mxGeometry x="370" y="365" width="70" height="65" as="geometry" />
        </mxCell>
        <mxCell id="Bd0iO2E9fn0XYFr_jrLQ-88" value="" style="rounded=0;whiteSpace=wrap;html=1;" parent="1" vertex="1">
          <mxGeometry x="450" y="730" width="260" height="60" as="geometry" />
        </mxCell>
        <mxCell id="Bd0iO2E9fn0XYFr_jrLQ-89" value="&lt;font style=&quot;font-size: 12px&quot;&gt;thread 1&lt;br&gt;&lt;/font&gt;" style="text;html=1;resizable=0;autosize=1;align=center;verticalAlign=middle;points=[];fillColor=none;strokeColor=none;rounded=0;" parent="1" vertex="1">
          <mxGeometry x="140" y="730" width="60" height="20" as="geometry" />
        </mxCell>
        <mxCell id="Bd0iO2E9fn0XYFr_jrLQ-90" value="&lt;font style=&quot;font-size: 12px&quot;&gt;thread 2&lt;br&gt;&lt;/font&gt;" style="text;html=1;resizable=0;autosize=1;align=center;verticalAlign=middle;points=[];fillColor=none;strokeColor=none;rounded=0;" parent="1" vertex="1">
          <mxGeometry x="450" y="730" width="60" height="20" as="geometry" />
        </mxCell>
        <mxCell id="Bd0iO2E9fn0XYFr_jrLQ-91" value="stack frame" style="rounded=0;whiteSpace=wrap;html=1;" parent="1" vertex="1">
          <mxGeometry x="150" y="750" width="90" height="30" as="geometry" />
        </mxCell>
        <mxCell id="Bd0iO2E9fn0XYFr_jrLQ-92" value="stack frame" style="rounded=0;whiteSpace=wrap;html=1;" parent="1" vertex="1">
          <mxGeometry x="240" y="750" width="80" height="30" as="geometry" />
        </mxCell>
        <mxCell id="Bd0iO2E9fn0XYFr_jrLQ-93" value="stack frame" style="rounded=0;whiteSpace=wrap;html=1;" parent="1" vertex="1">
          <mxGeometry x="320" y="750" width="60" height="30" as="geometry" />
        </mxCell>
        <mxCell id="Bd0iO2E9fn0XYFr_jrLQ-94" value="stack frame" style="rounded=0;whiteSpace=wrap;html=1;" parent="1" vertex="1">
          <mxGeometry x="460" y="750" width="80" height="30" as="geometry" />
        </mxCell>
        <mxCell id="Bd0iO2E9fn0XYFr_jrLQ-95" value="stack frame" style="rounded=0;whiteSpace=wrap;html=1;" parent="1" vertex="1">
          <mxGeometry x="540" y="750" width="80" height="30" as="geometry" />
        </mxCell>
        <mxCell id="Bd0iO2E9fn0XYFr_jrLQ-97" value="stack frame" style="rounded=0;whiteSpace=wrap;html=1;" parent="1" vertex="1">
          <mxGeometry x="620" y="750" width="80" height="30" as="geometry" />
        </mxCell>
        <mxCell id="Bd0iO2E9fn0XYFr_jrLQ-98" value="" style="endArrow=classic;html=1;entryX=0;entryY=1;entryDx=0;entryDy=0;" parent="1" edge="1">
          <mxGeometry width="50" height="50" relative="1" as="geometry">
            <mxPoint x="140" y="840" as="sourcePoint" />
            <mxPoint x="140" y="790" as="targetPoint" />
          </mxGeometry>
        </mxCell>
        <mxCell id="Bd0iO2E9fn0XYFr_jrLQ-99" value="" style="endArrow=classic;html=1;entryX=0;entryY=1;entryDx=0;entryDy=0;" parent="1" edge="1">
          <mxGeometry width="50" height="50" relative="1" as="geometry">
            <mxPoint x="390" y="840" as="sourcePoint" />
            <mxPoint x="390" y="790" as="targetPoint" />
          </mxGeometry>
        </mxCell>
        <mxCell id="Bd0iO2E9fn0XYFr_jrLQ-100" value="" style="endArrow=none;dashed=1;html=1;dashPattern=1 3;strokeWidth=2;" parent="1" edge="1">
          <mxGeometry width="50" height="50" relative="1" as="geometry">
            <mxPoint x="140" y="820" as="sourcePoint" />
            <mxPoint x="390" y="820" as="targetPoint" />
          </mxGeometry>
        </mxCell>
        <mxCell id="Bd0iO2E9fn0XYFr_jrLQ-101" value="&lt;font&gt;&lt;span style=&quot;font-size: 12px&quot;&gt;-Xss&lt;/span&gt;&lt;br&gt;&lt;/font&gt;" style="edgeLabel;html=1;align=center;verticalAlign=middle;resizable=0;points=[];" parent="Bd0iO2E9fn0XYFr_jrLQ-100" vertex="1" connectable="0">
          <mxGeometry x="-0.1427" y="-1" relative="1" as="geometry">
            <mxPoint x="11.330000000000002" y="-1" as="offset" />
          </mxGeometry>
        </mxCell>
        <mxCell id="qc9pPUHVI17w367efSkC-4" value="" style="endArrow=none;dashed=1;html=1;dashPattern=1 3;strokeWidth=2;" parent="1" edge="1">
          <mxGeometry width="50" height="50" relative="1" as="geometry">
            <mxPoint x="600" y="350" as="sourcePoint" />
            <mxPoint x="720" y="350" as="targetPoint" />
          </mxGeometry>
        </mxCell>
        <mxCell id="qc9pPUHVI17w367efSkC-5" value="&lt;font&gt;&lt;font style=&quot;font-size: 12px&quot;&gt;-&lt;span style=&quot;background-color: rgba(0 , 0 , 0 , 0) ; font-family: &amp;#34;microsoft yahei&amp;#34; , &amp;#34;stxihei&amp;#34; ; text-align: left&quot;&gt;XX:DirectMemory&lt;br&gt;Size&lt;/span&gt;&lt;/font&gt;&lt;br&gt;&lt;/font&gt;" style="edgeLabel;html=1;align=center;verticalAlign=middle;resizable=0;points=[];" parent="qc9pPUHVI17w367efSkC-4" vertex="1" connectable="0">
          <mxGeometry x="-0.1427" y="-1" relative="1" as="geometry">
            <mxPoint x="11.330000000000002" y="-1" as="offset" />
          </mxGeometry>
        </mxCell>
        <mxCell id="2sGPP1fUldHjdftS-RED-1" value="&lt;font style=&quot;font-size: 18px&quot;&gt;Physical Memory&lt;/font&gt;" style="rounded=0;whiteSpace=wrap;html=1;" parent="1" vertex="1">
          <mxGeometry x="60" y="30" width="730" height="100" as="geometry" />
        </mxCell>
        <mxCell id="2sGPP1fUldHjdftS-RED-2" value="&lt;font style=&quot;font-size: 18px&quot;&gt;JVM&lt;/font&gt;" style="rounded=0;whiteSpace=wrap;html=1;" parent="1" vertex="1">
          <mxGeometry x="90" y="60" width="120" height="40" as="geometry" />
        </mxCell>
        <mxCell id="qc9pPUHVI17w367efSkC-6" value="" style="endArrow=classic;html=1;entryX=0;entryY=1;entryDx=0;entryDy=0;" parent="1" edge="1">
          <mxGeometry width="50" height="50" relative="1" as="geometry">
            <mxPoint x="600" y="365" as="sourcePoint" />
            <mxPoint x="600" y="305" as="targetPoint" />
          </mxGeometry>
        </mxCell>
        <mxCell id="qc9pPUHVI17w367efSkC-7" value="" style="endArrow=classic;html=1;entryX=0;entryY=1;entryDx=0;entryDy=0;" parent="1" edge="1">
          <mxGeometry width="50" height="50" relative="1" as="geometry">
            <mxPoint x="719" y="367.5" as="sourcePoint" />
            <mxPoint x="719" y="307.5" as="targetPoint" />
          </mxGeometry>
        </mxCell>
        <mxCell id="2sGPP1fUldHjdftS-RED-4" value="&lt;div&gt;&lt;font style=&quot;font-size: 14px&quot;&gt;&lt;span&gt;Code C&lt;/span&gt;&lt;font face=&quot;Roboto, RobotoDraft, Helvetica, Arial, sans-serif&quot;&gt;&lt;span style=&quot;background-color: rgb(210 , 227 , 252)&quot;&gt;ache&lt;/span&gt;&lt;/font&gt;&lt;/font&gt;&lt;/div&gt;" style="rounded=0;whiteSpace=wrap;html=1;" parent="1" vertex="1">
          <mxGeometry x="720" y="500" width="70" height="60" as="geometry" />
        </mxCell>
        <mxCell id="2sGPP1fUldHjdftS-RED-5" value="" style="endArrow=classic;startArrow=classic;html=1;exitX=0.141;exitY=0.033;exitDx=0;exitDy=0;exitPerimeter=0;" parent="1" source="Bd0iO2E9fn0XYFr_jrLQ-40" edge="1">
          <mxGeometry width="50" height="50" relative="1" as="geometry">
            <mxPoint x="150" y="170" as="sourcePoint" />
            <mxPoint x="150" y="100" as="targetPoint" />
            <Array as="points">
              <mxPoint x="150" y="150" />
              <mxPoint x="150" y="100" />
            </Array>
          </mxGeometry>
        </mxCell>
        <mxCell id="_GtwI5-NpojnnqZlY6Fl-1" value="Direct Memory" style="rounded=0;whiteSpace=wrap;html=1;" vertex="1" parent="1">
          <mxGeometry x="600" y="252.5" width="120" height="55" as="geometry" />
        </mxCell>
        <mxCell id="_GtwI5-NpojnnqZlY6Fl-2" value="&lt;span style=&quot;font-size: 14px&quot;&gt;JVM Logic Memory&lt;/span&gt;" style="text;html=1;resizable=0;autosize=1;align=center;verticalAlign=middle;points=[];fillColor=none;strokeColor=none;rounded=0;" vertex="1" parent="1">
          <mxGeometry x="40" y="200" width="140" height="20" as="geometry" />
        </mxCell>
      </root>
    </mxGraphModel>
  </diagram>
</mxfile>
